<svg xmlns="http://www.w3.org/2000/svg" viewBox="0 0 48 48" width="48" height="48">
	<style>
		.line {
			fill: #ffffff
		}

		.circle {
			fill: none;
			stroke: #ffffff;
			stroke-width: 4
		}
	</style>

	<circle class="circle" cx="24" cy="24" r="16" />

	<path class="line"
		d="M24 1L24 1C25.06 1 25.92 1.86 25.92 2.92L25.92 16.33C25.92 17.39 25.06 18.25 24 18.25L24 18.25C22.94 18.25 22.08 17.39 22.08 16.33L22.08 2.92C22.08 1.86 22.94 1 24 1Z" />

	<path class="line"
		d="M24 29.75L24 29.75C25.06 29.75 25.92 30.61 25.92 31.67L25.92 45.08C25.92 46.14 25.06 47 24 47L24 47C22.94 47 22.08 46.14 22.08 45.08L22.08 31.67C22.08 30.61 22.94 29.75 24 29.75Z" />
	<path class="line"
		d="M31.67 22.08L45.08 22.08C46.14 22.08 47 22.94 47 24L47 24C47 25.06 46.14 25.92 45.08 25.92L31.67 25.92C30.61 25.92 29.75 25.06 29.75 24L29.75 24C29.75 22.94 30.61 22.08 31.67 22.08Z" />
	<path class="line"
		d="M2.92 22.08L16.33 22.08C17.39 22.08 18.25 22.94 18.25 24L18.25 24C18.25 25.06 17.39 25.92 16.33 25.92L2.92 25.92C1.86 25.92 1 25.06 1 24L1 24C1 22.94 1.86 22.08 2.92 22.08Z" />
</svg>