<svg xmlns="http://www.w3.org/2000/svg" xmlns:xlink="http://www.w3.org/1999/xlink" baseProfile="tiny" viewBox="0 0 512 512" overflow="visible" xmlns:v="https://vecta.io/nano"><path d="M268.8 91.8h-156a7.6 7.6 0 0 1 0-15.2h156a7.6 7.6 0 1 1 0 15.2zm-149.1 55.8H39.4a7.6 7.6 0 0 1 0-15.2h80.3a7.6 7.6 0 0 1 0 15.2h0zm-2.7 51.9H85.3a7.6 7.6 0 0 1 0-15.2H117a7.6 7.6 0 1 1 0 15.2h0zm-31.7 37.6H7.6a7.6 7.6 0 0 1-7.6-7.6 7.6 7.6 0 0 1 7.6-7.6h77.6a7.6 7.6 0 0 1 7.6 7.6c0 4.2-3.3 7.5-7.5 7.6h0zm193.6 198.3H112.8a7.6 7.6 0 1 1 0-15.2h166.1a7.6 7.6 0 1 1 0 15.2zm-159.2-55.8H39.4a7.6 7.6 0 1 1 0-15.2h80.3a7.6 7.6 0 1 1 0 15.2zm-2.7-51.9H85.3a7.6 7.6 0 1 1 0-15.2H117a7.6 7.6 0 1 1 0 15.2zm-31.7-37.5H7.6a7.6 7.6 0 1 1 0-15.2h77.6a7.6 7.6 0 0 1 7.6 7.6c0 4.2-3.3 7.6-7.5 7.6z" fill="#d22138"/><path fill="#e03f54" d="M324.3 108.3c39.5 0 76.6 15.4 104.5 43.3s43.3 65 43.3 104.5-15.4 76.6-43.3 104.5-65 43.3-104.5 43.3-76.6-15.4-104.5-43.3-43.3-65-43.3-104.5 15.4-76.6 43.3-104.5c27.9-28 65-43.3 104.5-43.3m0-40c-103.7 0-187.7 84-187.7 187.7s84 187.7 187.7 187.7S512 359.7 512 256 428 68.3 324.3 68.3h0z"/><g fill="#d22138"><path d="M324.3 68.3c-4.8 0-9.5.2-14.1.5 97 7.2 173.6 88.3 173.6 187.2s-76.5 180-173.6 187.2c4.7.3 9.4.5 14.1.5C428 443.7 512 359.7 512 256S428 68.3 324.3 68.3h0zm0 96.2a7.6 7.6 0 0 1-7.6-7.6v-11.6a7.6 7.6 0 1 1 15.2 0v11.6a7.6 7.6 0 0 1-7.6 7.6h0z"/><use xlink:href="#B"/><path d="M435 263.6h-11.6a7.6 7.6 0 1 1 0-15.2H435a7.6 7.6 0 1 1 0 15.2z"/><use xlink:href="#C"/><path d="M324.3 374.4a7.6 7.6 0 0 1-7.6-7.6v-11.6a7.6 7.6 0 1 1 15.2 0v11.6c0 4.1-3.4 7.6-7.6 7.6z"/><use xlink:href="#B" x="-148.4" y="148.4"/><path d="M225.2 263.6h-11.6a7.6 7.6 0 1 1 0-15.2h11.6a7.6 7.6 0 1 1 0 15.2h0z"/><use xlink:href="#C" x="-148.4" y="-148.4"/></g><path fill="#e03f54" d="M357.6 263.6h-33.3a7.6 7.6 0 0 1-7.6-7.6v-64.1a7.6 7.6 0 1 1 15.2 0v56.5h25.7a7.6 7.6 0 1 1 0 15.2z"/><defs ><path id="B" d="M394.4 193.5c-1.9 0-3.9-.7-5.4-2.2-3-3-3-7.8 0-10.8l8.2-8.2c3-3 7.8-3 10.8 0s3 7.8 0 10.8l-8.2 8.2c-1.5 1.5-3.5 2.2-5.4 2.2h0z"/><path id="C" d="M402.6 341.9c-1.9 0-3.9-.7-5.4-2.2l-8.2-8.2c-3-3-3-7.8 0-10.8s7.8-3 10.8 0l8.2 8.2c3 3 3 7.8 0 10.8-1.5 1.5-3.5 2.2-5.4 2.2h0z"/></defs></svg>